<mxfile host="app.diagrams.net" modified="2023-06-02T08:27:29.061Z" agent="Mozilla/5.0 (Windows NT 10.0; Win64; x64) AppleWebKit/537.36 (KHTML, like Gecko) Chrome/113.0.0.0 Safari/537.36" etag="rm0l6ZM-HTT_fIU1WBei" version="21.3.7" type="github">
  <diagram name="第 1 页" id="ehAhtP3hnhxLsiKWGoqG">
    <mxGraphModel dx="3468" dy="-4228" grid="0" gridSize="10" guides="1" tooltips="1" connect="1" arrows="1" fold="1" page="1" pageScale="1" pageWidth="827" pageHeight="1169" math="0" shadow="0">
      <root>
        <mxCell id="0" />
        <mxCell id="1" parent="0" />
        <mxCell id="fecSUzpUox99niT3NqIV-2" style="edgeStyle=orthogonalEdgeStyle;rounded=0;orthogonalLoop=1;jettySize=auto;html=1;exitX=0.5;exitY=1;exitDx=0;exitDy=0;exitPerimeter=0;" parent="1" source="fecSUzpUox99niT3NqIV-3" target="fecSUzpUox99niT3NqIV-5" edge="1">
          <mxGeometry relative="1" as="geometry" />
        </mxCell>
        <mxCell id="fecSUzpUox99niT3NqIV-3" value="开始" style="strokeWidth=2;html=1;shape=mxgraph.flowchart.terminator;whiteSpace=wrap;fontSize=12;" parent="1" vertex="1">
          <mxGeometry x="-2275" y="4876" width="129" height="50" as="geometry" />
        </mxCell>
        <mxCell id="fecSUzpUox99niT3NqIV-4" style="edgeStyle=orthogonalEdgeStyle;rounded=0;orthogonalLoop=1;jettySize=auto;html=1;exitX=0.5;exitY=1;exitDx=0;exitDy=0;entryX=0.5;entryY=0;entryDx=0;entryDy=0;" parent="1" source="fecSUzpUox99niT3NqIV-5" target="fecSUzpUox99niT3NqIV-8" edge="1">
          <mxGeometry relative="1" as="geometry" />
        </mxCell>
        <mxCell id="fecSUzpUox99niT3NqIV-5" value="用户完成订单" style="rounded=0;whiteSpace=wrap;html=1;fontSize=12;" parent="1" vertex="1">
          <mxGeometry x="-2266.5" y="4968" width="112" height="42" as="geometry" />
        </mxCell>
        <mxCell id="fecSUzpUox99niT3NqIV-6" style="edgeStyle=orthogonalEdgeStyle;rounded=0;orthogonalLoop=1;jettySize=auto;html=1;exitX=1;exitY=0.5;exitDx=0;exitDy=0;entryX=0;entryY=0.5;entryDx=0;entryDy=0;entryPerimeter=0;" parent="1" source="fecSUzpUox99niT3NqIV-8" target="fecSUzpUox99niT3NqIV-10" edge="1">
          <mxGeometry relative="1" as="geometry" />
        </mxCell>
        <mxCell id="fecSUzpUox99niT3NqIV-7" style="edgeStyle=orthogonalEdgeStyle;rounded=0;orthogonalLoop=1;jettySize=auto;html=1;exitX=0.5;exitY=1;exitDx=0;exitDy=0;entryX=0.5;entryY=0;entryDx=0;entryDy=0;" parent="1" source="fecSUzpUox99niT3NqIV-8" target="fecSUzpUox99niT3NqIV-12" edge="1">
          <mxGeometry relative="1" as="geometry" />
        </mxCell>
        <mxCell id="fecSUzpUox99niT3NqIV-8" value="用户订单存入数据库" style="shape=parallelogram;html=1;strokeWidth=2;perimeter=parallelogramPerimeter;whiteSpace=wrap;rounded=1;arcSize=12;size=0.23;fontSize=12;" parent="1" vertex="1">
          <mxGeometry x="-2297.5" y="5062" width="172.5" height="56" as="geometry" />
        </mxCell>
        <mxCell id="Q-Ex6bZn2ICteqh0SFU7-1" style="edgeStyle=orthogonalEdgeStyle;rounded=0;orthogonalLoop=1;jettySize=auto;html=1;exitX=0.5;exitY=1;exitDx=0;exitDy=0;exitPerimeter=0;entryX=0.5;entryY=0;entryDx=0;entryDy=0;" edge="1" parent="1" source="fecSUzpUox99niT3NqIV-10" target="fecSUzpUox99niT3NqIV-12">
          <mxGeometry relative="1" as="geometry" />
        </mxCell>
        <mxCell id="fecSUzpUox99niT3NqIV-10" value="菜品-订单数据表" style="strokeWidth=2;html=1;shape=mxgraph.flowchart.database;whiteSpace=wrap;" parent="1" vertex="1">
          <mxGeometry x="-2001" y="5055.25" width="96" height="69.5" as="geometry" />
        </mxCell>
        <mxCell id="Q-Ex6bZn2ICteqh0SFU7-2" style="edgeStyle=orthogonalEdgeStyle;rounded=0;orthogonalLoop=1;jettySize=auto;html=1;exitX=0.5;exitY=1;exitDx=0;exitDy=0;" edge="1" parent="1" source="fecSUzpUox99niT3NqIV-12" target="fecSUzpUox99niT3NqIV-13">
          <mxGeometry relative="1" as="geometry" />
        </mxCell>
        <mxCell id="fecSUzpUox99niT3NqIV-12" value="结合用户历史订单实现个性化推荐" style="rounded=0;whiteSpace=wrap;html=1;fontSize=12;" parent="1" vertex="1">
          <mxGeometry x="-2277.75" y="5195.25" width="133" height="63" as="geometry" />
        </mxCell>
        <mxCell id="fecSUzpUox99niT3NqIV-13" value="结束" style="strokeWidth=2;html=1;shape=mxgraph.flowchart.terminator;whiteSpace=wrap;fontSize=12;" parent="1" vertex="1">
          <mxGeometry x="-2276.12" y="5307" width="129.75" height="48" as="geometry" />
        </mxCell>
      </root>
    </mxGraphModel>
  </diagram>
</mxfile>
